<?xml version="1.0" encoding="utf-8"?>
<!-- Generator: Adobe Illustrator 24.1.2, SVG Export Plug-In . SVG Version: 6.00 Build 0)  -->
<svg version="1.1" id="Warstwa_3" xmlns="http://www.w3.org/2000/svg" xmlns:xlink="http://www.w3.org/1999/xlink" x="0px" y="0px"
	 viewBox="0 0 430 430" style="enable-background:new 0 0 430 430;" xml:space="preserve">
<style type="text/css">
	.st0{fill:#08A88A;}
	.st1{fill:#121331;}
	.st2{fill:none;}
	.st3{fill-opacity:0;}
</style>
<g>
	<path class="st0" d="M182.59,399.51c-1.64,0-3.25-0.64-4.46-1.85l-21.05-21.05l-20.55,20.55c-1.81,1.81-4.53,2.35-6.89,1.35
		c-2.36-0.99-3.89-3.31-3.86-5.86l0.41-48.5c0.03-3.46,2.84-6.25,6.3-6.25c0.02,0,0.04,0,0.05,0c3.48,0.03,6.28,2.87,6.25,6.35
		l-0.28,33.1l14.12-14.12c2.46-2.46,6.45-2.46,8.91,0l15.13,15.13l0.91-34.59c0.09-3.48,2.97-6.23,6.46-6.13
		c3.48,0.09,6.22,2.98,6.13,6.46l-1.29,49.25c-0.07,2.52-1.62,4.75-3.96,5.69C184.16,399.37,183.37,399.51,182.59,399.51z"/>
	<path class="st1" d="M325.3,100.11c-3.48,0-6.3-2.82-6.3-6.3V44.47c-25.88-0.11-125.36-0.57-179.15-1.38
		c-9.4-0.16-16.69,2.41-21.66,7.59c-6.17,6.42-7.13,15.06-6.97,17.85c0.19,3.47-2.47,6.44-5.95,6.63c-3.48,0.18-6.44-2.47-6.63-5.95
		c-0.31-5.75,1.54-17.97,10.47-27.27c7.5-7.8,17.89-11.66,30.94-11.46c61.8,0.93,184.05,1.4,185.28,1.4
		c3.47,0.01,6.28,2.83,6.28,6.3v55.62C331.6,97.29,328.78,100.11,325.3,100.11z"/>
	<path class="st1" d="M196.68,347.27c-27.43,0-49.92-0.02-55.67-0.09c-32.78-0.39-42.5-25.33-43.06-38.46
		c0-0.09-0.01-0.19-0.01-0.28L98.4,68.67c0-0.06,0-0.1,0-0.12c0.07-3.43,2.87-6.17,6.3-6.17c0.02,0,0.05,0,0.07,0
		c3.46,0.04,6.23,2.86,6.23,6.31l0,0.26c0.04,2.69,1.33,20.83,29.22,20.99c31.01,0.18,183.99,0.01,185.53,0.01c0,0,0,0,0.01,0
		c1.67,0,3.27,0.66,4.45,1.84c1.18,1.18,1.85,2.79,1.85,4.46v244.63c0,3.48-2.82,6.3-6.29,6.3
		C324.65,347.18,251,347.27,196.68,347.27z M110.54,308.27c0.06,0.81,0.66,7.21,4.46,13.41c5.17,8.42,13.97,12.76,26.15,12.91
		c15.14,0.18,147.65,0.04,178.29,0.01V102.56c-29.32,0.03-151.89,0.14-179.31-0.02c-12.18-0.07-21.97-2.98-29.19-8.67L110.54,308.27
		z"/>
	<path class="st0" d="M295.76,72.32c-0.91,0-1.77-0.19-2.55-0.54c-14.94,0-92.06-0.03-140.27-0.1c-3.48,0-6.3-2.83-6.29-6.31
		c0-3.48,2.82-6.29,6.3-6.29c0,0,0.01,0,0.01,0c53.29,0.08,141.91,0.1,142.8,0.1c3.48,0,6.3,2.82,6.3,6.3v0.54
		C302.06,69.5,299.23,72.32,295.76,72.32z"/>
	<path class="st0" d="M295.76,71.79C295.75,71.79,295.75,71.79,295.76,71.79c-0.95,0-95.11-0.02-147.73-0.11
		c-3.48-0.01-6.3-2.83-6.29-6.31c0.01-3.48,2.83-6.29,6.3-6.29c0,0,0.01,0,0.01,0c52.61,0.08,146.77,0.11,147.71,0.11
		c3.48,0,6.3,2.82,6.3,6.3C302.05,68.97,299.23,71.79,295.76,71.79z"/>
</g>
</svg>
